<mxfile host="app.diagrams.net" modified="2024-04-08T18:13:45.850Z" agent="5.0 (Macintosh; Intel Mac OS X 10_15_7) AppleWebKit/537.36 (KHTML, like Gecko) Chrome/123.0.0.0 Safari/537.36" etag="ERyVvCqItEH66_PNV9Pv" version="20.8.13" type="github">
  <diagram name="Page-1" id="5f0bae14-7c28-e335-631c-24af17079c00">
    <mxGraphModel dx="1246" dy="596" grid="0" gridSize="10" guides="1" tooltips="1" connect="1" arrows="1" fold="1" page="0" pageScale="1" pageWidth="1100" pageHeight="850" background="none" math="0" shadow="0">
      <root>
        <mxCell id="0" />
        <mxCell id="1" parent="0" />
        <mxCell id="hj4ADNZq1KRFVt_qaiAe-23" style="edgeStyle=orthogonalEdgeStyle;rounded=0;orthogonalLoop=1;jettySize=auto;html=1;entryX=1;entryY=0.5;entryDx=0;entryDy=0;" edge="1" parent="1" source="hj4ADNZq1KRFVt_qaiAe-2" target="hj4ADNZq1KRFVt_qaiAe-1">
          <mxGeometry relative="1" as="geometry" />
        </mxCell>
        <mxCell id="hj4ADNZq1KRFVt_qaiAe-25" style="edgeStyle=orthogonalEdgeStyle;rounded=0;orthogonalLoop=1;jettySize=auto;html=1;entryX=0;entryY=0.5;entryDx=0;entryDy=0;" edge="1" parent="1" source="hj4ADNZq1KRFVt_qaiAe-2" target="hj4ADNZq1KRFVt_qaiAe-13">
          <mxGeometry relative="1" as="geometry" />
        </mxCell>
        <mxCell id="hj4ADNZq1KRFVt_qaiAe-32" style="edgeStyle=orthogonalEdgeStyle;rounded=0;orthogonalLoop=1;jettySize=auto;html=1;exitX=0.5;exitY=0;exitDx=0;exitDy=0;exitPerimeter=0;entryX=0.5;entryY=1;entryDx=0;entryDy=0;entryPerimeter=0;" edge="1" parent="1" source="hj4ADNZq1KRFVt_qaiAe-2" target="hj4ADNZq1KRFVt_qaiAe-12">
          <mxGeometry relative="1" as="geometry" />
        </mxCell>
        <mxCell id="hj4ADNZq1KRFVt_qaiAe-2" value="" style="outlineConnect=0;dashed=0;verticalLabelPosition=bottom;verticalAlign=top;align=center;html=1;shape=mxgraph.aws3.classic_load_balancer;fillColor=#F58534;gradientColor=none;rotation=90;" vertex="1" parent="1">
          <mxGeometry x="530.5" y="129.5" width="69" height="72" as="geometry" />
        </mxCell>
        <mxCell id="hj4ADNZq1KRFVt_qaiAe-3" value="" style="group" vertex="1" connectable="0" parent="1">
          <mxGeometry x="517.5" y="390" width="237.5" height="225" as="geometry" />
        </mxCell>
        <mxCell id="hj4ADNZq1KRFVt_qaiAe-5" value="" style="group" vertex="1" connectable="0" parent="hj4ADNZq1KRFVt_qaiAe-3">
          <mxGeometry x="28" y="30" width="209.5" height="175" as="geometry" />
        </mxCell>
        <mxCell id="hj4ADNZq1KRFVt_qaiAe-6" value="" style="fontColor=#0066CC;verticalAlign=top;verticalLabelPosition=bottom;labelPosition=center;align=center;html=1;outlineConnect=0;fillColor=#CCCCCC;strokeColor=#6881B3;gradientColor=none;gradientDirection=north;strokeWidth=2;shape=mxgraph.networks.web_server;" vertex="1" parent="hj4ADNZq1KRFVt_qaiAe-5">
          <mxGeometry x="90" width="80" height="75" as="geometry" />
        </mxCell>
        <mxCell id="hj4ADNZq1KRFVt_qaiAe-7" style="edgeStyle=orthogonalEdgeStyle;rounded=0;orthogonalLoop=1;jettySize=auto;html=1;" edge="1" parent="hj4ADNZq1KRFVt_qaiAe-5" source="hj4ADNZq1KRFVt_qaiAe-8" target="hj4ADNZq1KRFVt_qaiAe-6">
          <mxGeometry relative="1" as="geometry" />
        </mxCell>
        <mxCell id="hj4ADNZq1KRFVt_qaiAe-8" value="" style="image;aspect=fixed;perimeter=ellipsePerimeter;html=1;align=center;shadow=0;dashed=0;spacingTop=3;image=img/lib/active_directory/database.svg;" vertex="1" parent="hj4ADNZq1KRFVt_qaiAe-5">
          <mxGeometry y="63" width="50" height="37" as="geometry" />
        </mxCell>
        <mxCell id="hj4ADNZq1KRFVt_qaiAe-9" style="edgeStyle=orthogonalEdgeStyle;rounded=0;orthogonalLoop=1;jettySize=auto;html=1;" edge="1" parent="hj4ADNZq1KRFVt_qaiAe-5" source="hj4ADNZq1KRFVt_qaiAe-10" target="hj4ADNZq1KRFVt_qaiAe-8">
          <mxGeometry relative="1" as="geometry" />
        </mxCell>
        <mxCell id="hj4ADNZq1KRFVt_qaiAe-10" value="" style="fontColor=#0066CC;verticalAlign=top;verticalLabelPosition=bottom;labelPosition=center;align=center;html=1;outlineConnect=0;fillColor=#CCCCCC;strokeColor=#6881B3;gradientColor=none;gradientDirection=north;strokeWidth=2;shape=mxgraph.networks.web_server;" vertex="1" parent="hj4ADNZq1KRFVt_qaiAe-5">
          <mxGeometry x="90" y="100" width="80" height="75" as="geometry" />
        </mxCell>
        <mxCell id="hj4ADNZq1KRFVt_qaiAe-11" style="edgeStyle=orthogonalEdgeStyle;rounded=0;orthogonalLoop=1;jettySize=auto;html=1;" edge="1" parent="hj4ADNZq1KRFVt_qaiAe-5" source="hj4ADNZq1KRFVt_qaiAe-8" target="hj4ADNZq1KRFVt_qaiAe-10">
          <mxGeometry relative="1" as="geometry" />
        </mxCell>
        <mxCell id="hj4ADNZq1KRFVt_qaiAe-38" value="Database" style="text;html=1;strokeColor=none;fillColor=none;align=center;verticalAlign=middle;whiteSpace=wrap;rounded=0;fontFamily=Verdana;" vertex="1" parent="hj4ADNZq1KRFVt_qaiAe-3">
          <mxGeometry x="22.5" y="70" width="60" height="30" as="geometry" />
        </mxCell>
        <mxCell id="hj4ADNZq1KRFVt_qaiAe-39" value="" style="whiteSpace=wrap;html=1;aspect=fixed;fontFamily=Verdana;fillColor=none;strokeColor=default;" vertex="1" parent="hj4ADNZq1KRFVt_qaiAe-3">
          <mxGeometry width="225" height="225" as="geometry" />
        </mxCell>
        <mxCell id="hj4ADNZq1KRFVt_qaiAe-41" value="Web Server 01" style="text;html=1;strokeColor=none;fillColor=none;align=center;verticalAlign=middle;whiteSpace=wrap;rounded=0;fontFamily=Verdana;" vertex="1" parent="hj4ADNZq1KRFVt_qaiAe-3">
          <mxGeometry x="92.5" y="10" width="120" height="10" as="geometry" />
        </mxCell>
        <mxCell id="hj4ADNZq1KRFVt_qaiAe-42" value="Web Server 02" style="text;html=1;strokeColor=none;fillColor=none;align=center;verticalAlign=middle;whiteSpace=wrap;rounded=0;fontFamily=Verdana;" vertex="1" parent="hj4ADNZq1KRFVt_qaiAe-3">
          <mxGeometry x="92.5" y="210" width="120" height="10" as="geometry" />
        </mxCell>
        <mxCell id="hj4ADNZq1KRFVt_qaiAe-31" style="edgeStyle=orthogonalEdgeStyle;rounded=0;orthogonalLoop=1;jettySize=auto;html=1;entryX=1;entryY=0.5;entryDx=0;entryDy=0;" edge="1" parent="1" source="hj4ADNZq1KRFVt_qaiAe-12" target="hj4ADNZq1KRFVt_qaiAe-13">
          <mxGeometry relative="1" as="geometry" />
        </mxCell>
        <mxCell id="hj4ADNZq1KRFVt_qaiAe-33" style="edgeStyle=orthogonalEdgeStyle;rounded=0;orthogonalLoop=1;jettySize=auto;html=1;exitX=0.5;exitY=1;exitDx=0;exitDy=0;exitPerimeter=0;entryX=0.5;entryY=0;entryDx=0;entryDy=0;entryPerimeter=0;" edge="1" parent="1" source="hj4ADNZq1KRFVt_qaiAe-12" target="hj4ADNZq1KRFVt_qaiAe-2">
          <mxGeometry relative="1" as="geometry" />
        </mxCell>
        <mxCell id="hj4ADNZq1KRFVt_qaiAe-12" value="" style="outlineConnect=0;dashed=0;verticalLabelPosition=bottom;verticalAlign=top;align=center;html=1;shape=mxgraph.aws3.classic_load_balancer;fillColor=#F58534;gradientColor=none;rotation=90;" vertex="1" parent="1">
          <mxGeometry x="660.5" y="129.5" width="69" height="72" as="geometry" />
        </mxCell>
        <mxCell id="hj4ADNZq1KRFVt_qaiAe-34" style="edgeStyle=orthogonalEdgeStyle;rounded=0;orthogonalLoop=1;jettySize=auto;html=1;" edge="1" parent="1" source="hj4ADNZq1KRFVt_qaiAe-13">
          <mxGeometry relative="1" as="geometry">
            <mxPoint x="630" y="390" as="targetPoint" />
          </mxGeometry>
        </mxCell>
        <mxCell id="hj4ADNZq1KRFVt_qaiAe-13" value="" style="image;html=1;image=img/lib/clip_art/networking/Firewall_02_128x128.png" vertex="1" parent="1">
          <mxGeometry x="590.5" y="235.5" width="80" height="80" as="geometry" />
        </mxCell>
        <mxCell id="hj4ADNZq1KRFVt_qaiAe-14" value="Firewall&lt;span style=&quot;caret-color: rgba(0, 0, 0, 0); color: rgba(0, 0, 0, 0); font-family: monospace; font-size: 0px; text-align: start; white-space: nowrap;&quot;&gt;%3CmxGraphModel%3E%3Croot%3E%3CmxCell%20id%3D%220%22%2F%3E%3CmxCell%20id%3D%221%22%20parent%3D%220%22%2F%3E%3CmxCell%20id%3D%222%22%20value%3D%22%22%20style%3D%22outlineConnect%3D0%3Bdashed%3D0%3BverticalLabelPosition%3Dbottom%3BverticalAlign%3Dtop%3Balign%3Dcenter%3Bhtml%3D1%3Bshape%3Dmxgraph.aws3.classic_load_balancer%3BfillColor%3D%23F58534%3BgradientColor%3Dnone%3Brotation%3D90%3B%22%20vertex%3D%221%22%20parent%3D%221%22%3E%3CmxGeometry%20x%3D%22380%22%20y%3D%22310%22%20width%3D%2269%22%20height%3D%2272%22%20as%3D%22geometry%22%2F%3E%3C%2FmxCell%3E%3C%2Froot%3E%3C%2FmxGraphModel%3E&lt;/span&gt;" style="text;html=1;align=center;verticalAlign=middle;whiteSpace=wrap;rounded=0;" vertex="1" parent="1">
          <mxGeometry x="600.5" y="210.5" width="60" height="30" as="geometry" />
        </mxCell>
        <mxCell id="hj4ADNZq1KRFVt_qaiAe-21" value="" style="group" vertex="1" connectable="0" parent="1">
          <mxGeometry x="370" y="140" width="45" height="145" as="geometry" />
        </mxCell>
        <mxCell id="hj4ADNZq1KRFVt_qaiAe-1" value="" style="image;aspect=fixed;perimeter=ellipsePerimeter;html=1;align=center;shadow=0;dashed=0;spacingTop=3;image=img/lib/active_directory/laptop_client.svg;" vertex="1" parent="hj4ADNZq1KRFVt_qaiAe-21">
          <mxGeometry width="45" height="50" as="geometry" />
        </mxCell>
        <mxCell id="hj4ADNZq1KRFVt_qaiAe-15" value="" style="group" vertex="1" connectable="0" parent="hj4ADNZq1KRFVt_qaiAe-21">
          <mxGeometry x="8.75" y="95" width="27.500000000000004" height="50" as="geometry" />
        </mxCell>
        <mxCell id="hj4ADNZq1KRFVt_qaiAe-16" value="DNS" style="sketch=0;points=[[0.015,0.015,0],[0.985,0.015,0],[0.985,0.985,0],[0.015,0.985,0],[0.25,0,0],[0.5,0,0],[0.75,0,0],[1,0.25,0],[1,0.5,0],[1,0.75,0],[0.75,1,0],[0.5,1,0],[0.25,1,0],[0,0.75,0],[0,0.5,0],[0,0.25,0]];verticalLabelPosition=bottom;html=1;verticalAlign=top;aspect=fixed;align=center;pointerEvents=1;shape=mxgraph.cisco19.dns_server;fillColor=#005073;strokeColor=none;" vertex="1" parent="hj4ADNZq1KRFVt_qaiAe-15">
          <mxGeometry width="27.500000000000004" height="50" as="geometry" />
        </mxCell>
        <mxCell id="hj4ADNZq1KRFVt_qaiAe-17" style="edgeStyle=orthogonalEdgeStyle;rounded=0;orthogonalLoop=1;jettySize=auto;html=1;entryX=0.5;entryY=1;entryDx=0;entryDy=0;" edge="1" parent="hj4ADNZq1KRFVt_qaiAe-21" source="hj4ADNZq1KRFVt_qaiAe-16" target="hj4ADNZq1KRFVt_qaiAe-1">
          <mxGeometry relative="1" as="geometry" />
        </mxCell>
        <mxCell id="hj4ADNZq1KRFVt_qaiAe-18" style="edgeStyle=orthogonalEdgeStyle;rounded=0;orthogonalLoop=1;jettySize=auto;html=1;entryX=0.5;entryY=0;entryDx=0;entryDy=0;entryPerimeter=0;" edge="1" parent="hj4ADNZq1KRFVt_qaiAe-21" source="hj4ADNZq1KRFVt_qaiAe-1" target="hj4ADNZq1KRFVt_qaiAe-16">
          <mxGeometry relative="1" as="geometry" />
        </mxCell>
        <mxCell id="hj4ADNZq1KRFVt_qaiAe-22" style="edgeStyle=orthogonalEdgeStyle;rounded=0;orthogonalLoop=1;jettySize=auto;html=1;" edge="1" parent="1" source="hj4ADNZq1KRFVt_qaiAe-1" target="hj4ADNZq1KRFVt_qaiAe-2">
          <mxGeometry relative="1" as="geometry" />
        </mxCell>
        <mxCell id="hj4ADNZq1KRFVt_qaiAe-29" style="edgeStyle=orthogonalEdgeStyle;rounded=0;orthogonalLoop=1;jettySize=auto;html=1;entryX=0.5;entryY=1;entryDx=0;entryDy=0;" edge="1" parent="1" target="hj4ADNZq1KRFVt_qaiAe-13">
          <mxGeometry relative="1" as="geometry">
            <mxPoint x="630" y="390" as="sourcePoint" />
          </mxGeometry>
        </mxCell>
        <mxCell id="hj4ADNZq1KRFVt_qaiAe-35" value="Client" style="text;html=1;strokeColor=none;fillColor=none;align=center;verticalAlign=middle;whiteSpace=wrap;rounded=0;" vertex="1" parent="1">
          <mxGeometry x="362.5" y="110" width="60" height="30" as="geometry" />
        </mxCell>
        <mxCell id="hj4ADNZq1KRFVt_qaiAe-36" value="Load Balancer 1" style="text;html=1;strokeColor=none;fillColor=none;align=center;verticalAlign=middle;whiteSpace=wrap;rounded=0;fontFamily=Verdana;" vertex="1" parent="1">
          <mxGeometry x="529" y="91" width="70" height="30" as="geometry" />
        </mxCell>
        <mxCell id="hj4ADNZq1KRFVt_qaiAe-37" value="Load Balancer 2" style="text;html=1;strokeColor=none;fillColor=none;align=center;verticalAlign=middle;whiteSpace=wrap;rounded=0;fontFamily=Verdana;" vertex="1" parent="1">
          <mxGeometry x="670.5" y="90" width="70" height="30" as="geometry" />
        </mxCell>
      </root>
    </mxGraphModel>
  </diagram>
</mxfile>
